<svg width="26" height="16" viewBox="0 0 26 16" fill="none" xmlns="http://www.w3.org/2000/svg">
<path d="M11.025 15.2751C10.075 15.7584 9.06664 16.0001 7.99998 16.0001C7.26664 16.0001 6.55831 15.9042 5.87498 15.7126C5.19164 15.5209 4.55414 15.2542 3.96248 14.9126C3.37081 14.5709 2.83331 14.1542 2.34998 13.6626C1.86664 13.1709 1.44998 12.6292 1.09998 12.0376C0.749977 11.4459 0.479143 10.8084 0.287477 10.1251C0.0958099 9.44173 -2.28882e-05 8.73339 -2.28882e-05 8.00006C-2.28882e-05 7.26673 0.0958099 6.55839 0.287477 5.87506C0.479143 5.19173 0.74581 4.55423 1.08748 3.96256C1.42914 3.37089 1.84581 2.83339 2.33748 2.35006C2.82914 1.86673 3.37081 1.45006 3.96248 1.10006C4.55414 0.750061 5.19164 0.479228 5.87498 0.287561C6.55831 0.0958944 7.26664 6.10352e-05 7.99998 6.10352e-05C9.05831 6.10352e-05 10.0625 0.233394 11.0125 0.700061L25.6 7.93756L11.025 15.2751Z" fill="#007CFF"/>
</svg>
