<svg width="26" height="16" viewBox="0 0 26 16" fill="none" xmlns="http://www.w3.org/2000/svg">
<path d="M14.575 0.724999C15.525 0.241667 16.5333 0 17.6 0C18.3333 0 19.0417 0.0958328 19.725 0.287499C20.4083 0.479166 21.0458 0.745833 21.6375 1.0875C22.2292 1.42917 22.7667 1.84583 23.25 2.3375C23.7333 2.82917 24.15 3.37083 24.5 3.9625C24.85 4.55417 25.1208 5.19167 25.3125 5.875C25.5042 6.55833 25.6 7.26667 25.6 8C25.6 8.73333 25.5042 9.44167 25.3125 10.125C25.1208 10.8083 24.8542 11.4458 24.5125 12.0375C24.1708 12.6292 23.7542 13.1667 23.2625 13.65C22.7708 14.1333 22.2292 14.55 21.6375 14.9C21.0458 15.25 20.4083 15.5208 19.725 15.7125C19.0417 15.9042 18.3333 16 17.6 16C16.5417 16 15.5375 15.7667 14.5875 15.3L0 8.0625L14.575 0.724999Z" fill="#38D200"/>
</svg>
