<?xml version="1.0" encoding="UTF-8"?>
<svg class="w-6 h-6 fill-white" xmlns="http://www.w3.org/2000/svg" viewBox="0 0 45.09 39.93">
  <defs>
    <style>
      .cls-1 {
        fill: #fff;
        stroke-width: 0px;
      }
    </style>
  </defs>
  <path class="cls-1" d="m21.55,25.63c.29.25.64.38,1,.38s.71-.13,1-.38c.36-.32,8.87-7.9,8.87-15.76,0-5.44-4.43-9.87-9.87-9.87s-9.87,4.43-9.87,9.87c0,7.86,8.5,15.44,8.87,15.76Zm1-18.34c1.41,0,2.56,1.15,2.56,2.58s-1.15,2.58-2.56,2.58-2.56-1.15-2.56-2.58,1.15-2.58,2.56-2.58Z"/>
  <path class="cls-1" d="m40.36,21.62c-.19-.65-.78-1.1-1.45-1.1h-6.21c-2.69,4.33-6.06,7.39-6.67,7.93-.96.85-2.2,1.32-3.48,1.32s-2.52-.47-3.48-1.32c-.61-.54-3.98-3.6-6.67-7.93h-6.21c-.68,0-1.27.45-1.46,1.1l-1.36,4.77,30.45,5.58,7.69-6.34-1.14-4Z"/>
  <path class="cls-1" d="m45.04,38l-2.92-10.23-14.49,12.16h15.95c.47,0,.92-.22,1.21-.6.29-.38.38-.87.25-1.33Z"/>
  <path class="cls-1" d="m7.41,29.29l-4.62-.85L.06,38c-.13.46-.04.95.25,1.33.29.38.73.6,1.21.6h5.9v-10.64Z"/>
  <polygon class="cls-1" points="9.53 29.67 9.53 39.93 24.33 39.93 31.71 33.74 9.53 29.67"/>
</svg>
